<svg xmlns="http://www.w3.org/2000/svg" xmlns:xlink="http://www.w3.org/1999/xlink" width="350" zoomAndPan="magnify" viewBox="0 0 262.5 60" height="80" preserveAspectRatio="xMidYMid meet" version="1.0"><defs><g/><clipPath id="801cb269ec"><rect x="0" width="203" y="0" height="38"/></clipPath><clipPath id="bc97be9027"><path d="M 37 24 L 50.15625 24 L 50.15625 38 L 37 38 Z M 37 24 " clip-rule="nonzero"/></clipPath><clipPath id="4df541cb47"><path d="M 2.246094 29 L 20 29 L 20 43 L 2.246094 43 Z M 2.246094 29 " clip-rule="nonzero"/></clipPath><clipPath id="58d4fa1735"><path d="M 27 14.871094 L 39 14.871094 L 39 26 L 27 26 Z M 27 14.871094 " clip-rule="nonzero"/></clipPath></defs><g transform="matrix(1, 0, 0, 1, 57, 11)"><g clip-path="url(#801cb269ec)"><g fill="#ffffff" fill-opacity="1"><g transform="translate(0.801834, 31.282022)"><g><path d="M 33.828125 0 L 29.9375 0 L 25.640625 -15.796875 L 19.265625 -1.171875 C 19.054688 -0.703125 18.785156 -0.335938 18.453125 -0.078125 C 18.128906 0.179688 17.726562 0.3125 17.25 0.3125 C 16.320312 0.3125 15.65625 -0.179688 15.25 -1.171875 L 8.90625 -15.796875 L 4.609375 0 L 0.734375 0 L 6.53125 -21.15625 C 6.789062 -22.226562 7.4375 -22.765625 8.46875 -22.765625 C 8.882812 -22.765625 9.269531 -22.648438 9.625 -22.421875 C 9.988281 -22.191406 10.265625 -21.859375 10.453125 -21.421875 L 17.375 -5.53125 L 24.296875 -21.421875 C 24.671875 -22.316406 25.300781 -22.765625 26.1875 -22.765625 C 27.132812 -22.765625 27.765625 -22.226562 28.078125 -21.15625 Z M 33.828125 0 "/></g></g></g><g fill="#ffffff" fill-opacity="1"><g transform="translate(35.268894, 31.282022)"><g><path d="M 30.125 0 L 25.390625 0 L 22.015625 -5.65625 L 11.375 -5.65625 L 13.234375 -8.84375 L 20.125 -8.84375 L 15.125 -17.25 L 4.921875 0 L 0.4375 0 L 13.359375 -21.515625 C 13.585938 -21.910156 13.851562 -22.222656 14.15625 -22.453125 C 14.46875 -22.679688 14.84375 -22.796875 15.28125 -22.796875 C 15.707031 -22.796875 16.070312 -22.679688 16.375 -22.453125 C 16.675781 -22.222656 16.9375 -21.910156 17.15625 -21.515625 Z M 30.125 0 "/></g></g></g><g fill="#ffffff" fill-opacity="1"><g transform="translate(65.841022, 31.282022)"><g><path d="M 18.796875 0 L 1.953125 0 L 1.953125 -3.921875 L 18.796875 -3.921875 C 19.847656 -3.921875 20.65625 -4.1875 21.21875 -4.71875 C 21.789062 -5.257812 22.078125 -5.972656 22.078125 -6.859375 C 22.078125 -7.828125 21.789062 -8.550781 21.21875 -9.03125 C 20.65625 -9.519531 19.847656 -9.765625 18.796875 -9.765625 L 8.46875 -9.765625 C 7.070312 -9.765625 5.859375 -10.039062 4.828125 -10.59375 C 3.796875 -11.15625 3 -11.914062 2.4375 -12.875 C 1.882812 -13.832031 1.609375 -14.929688 1.609375 -16.171875 C 1.609375 -17.390625 1.875 -18.472656 2.40625 -19.421875 C 2.945312 -20.367188 3.734375 -21.113281 4.765625 -21.65625 C 5.796875 -22.207031 7.050781 -22.484375 8.53125 -22.484375 L 24.671875 -22.484375 L 24.671875 -18.546875 L 8.53125 -18.546875 C 7.644531 -18.546875 6.945312 -18.296875 6.4375 -17.796875 C 5.9375 -17.304688 5.6875 -16.640625 5.6875 -15.796875 C 5.6875 -14.953125 5.9375 -14.285156 6.4375 -13.796875 C 6.945312 -13.316406 7.632812 -13.078125 8.5 -13.078125 L 18.796875 -13.078125 C 21.066406 -13.078125 22.796875 -12.539062 23.984375 -11.46875 C 25.179688 -10.394531 25.78125 -8.769531 25.78125 -6.59375 C 25.78125 -5.332031 25.523438 -4.207031 25.015625 -3.21875 C 24.503906 -2.226562 23.734375 -1.441406 22.703125 -0.859375 C 21.671875 -0.285156 20.367188 0 18.796875 0 Z M 18.796875 0 "/></g></g></g><g fill="#ffffff" fill-opacity="1"><g transform="translate(93.043722, 31.282022)"><g><path d="M 13.078125 0 L 9.15625 0 L 9.15625 -18.546875 L 0.625 -18.546875 L 0.625 -22.484375 L 21.609375 -22.484375 L 21.609375 -18.546875 L 13.078125 -18.546875 Z M 13.078125 0 "/></g></g></g><g fill="#ffffff" fill-opacity="1"><g transform="translate(115.300476, 31.282022)"><g><path d="M 6.09375 0 L 2.171875 0 L 2.171875 -22.484375 L 6.09375 -22.484375 Z M 6.09375 0 "/></g></g></g><g fill="#ffffff" fill-opacity="1"><g transform="translate(123.554025, 31.282022)"><g><path d="M 24.390625 0 L 12.21875 0 C 10.644531 0 9.191406 -0.285156 7.859375 -0.859375 C 6.535156 -1.441406 5.382812 -2.253906 4.40625 -3.296875 C 3.425781 -4.335938 2.660156 -5.550781 2.109375 -6.9375 C 1.566406 -8.332031 1.296875 -9.84375 1.296875 -11.46875 C 1.296875 -13.675781 1.769531 -15.601562 2.71875 -17.25 C 3.664062 -18.90625 4.960938 -20.191406 6.609375 -21.109375 C 8.265625 -22.023438 10.132812 -22.484375 12.21875 -22.484375 L 24.390625 -22.484375 L 24.390625 -18.546875 L 12.21875 -18.546875 C 10.875 -18.546875 9.675781 -18.238281 8.625 -17.625 C 7.570312 -17.007812 6.738281 -16.15625 6.125 -15.0625 C 5.519531 -13.96875 5.21875 -12.707031 5.21875 -11.28125 C 5.21875 -9.882812 5.515625 -8.628906 6.109375 -7.515625 C 6.710938 -6.398438 7.546875 -5.519531 8.609375 -4.875 C 9.671875 -4.238281 10.875 -3.921875 12.21875 -3.921875 L 24.390625 -3.921875 Z M 24.390625 0 "/></g></g></g><g fill="#ffffff" fill-opacity="1"><g transform="translate(149.180208, 31.282022)"><g><path d="M 30.125 0 L 25.390625 0 L 22.015625 -5.65625 L 11.375 -5.65625 L 13.234375 -8.84375 L 20.125 -8.84375 L 15.125 -17.25 L 4.921875 0 L 0.4375 0 L 13.359375 -21.515625 C 13.585938 -21.910156 13.851562 -22.222656 14.15625 -22.453125 C 14.46875 -22.679688 14.84375 -22.796875 15.28125 -22.796875 C 15.707031 -22.796875 16.070312 -22.679688 16.375 -22.453125 C 16.675781 -22.222656 16.9375 -21.910156 17.15625 -21.515625 Z M 30.125 0 "/></g></g></g><g fill="#ffffff" fill-opacity="1"><g transform="translate(179.752346, 31.282022)"><g><path d="M 21 0 L 1.953125 0 L 1.953125 -22.484375 L 5.875 -22.484375 L 5.875 -3.921875 L 21 -3.921875 Z M 21 0 "/></g></g></g></g></g><path fill="#ffffff" d="M 42.523438 39.515625 L 21.539062 18.527344 C 21.261719 18.25 20.972656 18.015625 20.675781 17.816406 C 20.355469 17.601562 20.015625 17.421875 19.675781 17.28125 L 19.667969 17.28125 C 19.324219 17.136719 18.960938 17.03125 18.589844 16.953125 C 18.21875 16.878906 17.847656 16.84375 17.472656 16.84375 C 17.101562 16.84375 16.726562 16.878906 16.359375 16.953125 C 15.984375 17.027344 15.625 17.136719 15.277344 17.28125 L 15.273438 17.28125 C 14.929688 17.421875 14.597656 17.597656 14.28125 17.808594 C 13.976562 18.015625 13.683594 18.253906 13.40625 18.527344 L 13.25 18.683594 C 13.046875 18.902344 12.863281 19.140625 12.699219 19.386719 C 12.484375 19.710938 12.304688 20.046875 12.164062 20.390625 C 12.023438 20.730469 11.910156 21.097656 11.835938 21.476562 C 11.761719 21.84375 11.726562 22.214844 11.726562 22.589844 C 11.726562 22.960938 11.761719 23.332031 11.835938 23.703125 C 11.910156 24.078125 12.019531 24.445312 12.160156 24.785156 C 12.300781 25.121094 12.476562 25.453125 12.6875 25.773438 C 12.894531 26.082031 13.132812 26.375 13.398438 26.644531 L 13.59375 26.839844 L 22.125 35.367188 L 26.800781 40.042969 C 31.867188 45.113281 37.746094 44.097656 43.054688 40.042969 Z M 42.523438 39.515625 " fill-opacity="1" fill-rule="evenodd"/><g clip-path="url(#bc97be9027)"><path fill="#ffffff" d="M 45.996094 25.453125 C 45.1875 25.117188 44.324219 24.949219 43.46875 24.949219 C 42.597656 24.949219 41.734375 25.117188 40.929688 25.449219 C 40.160156 25.769531 39.433594 26.246094 38.792969 26.882812 L 38.789062 26.882812 L 38.046875 27.625 L 37.828125 27.847656 L 47.175781 37.195312 L 47.398438 36.976562 L 48.136719 36.234375 L 48.136719 36.230469 C 48.453125 35.914062 48.726562 35.582031 48.957031 35.238281 C 49.203125 34.867188 49.40625 34.480469 49.570312 34.085938 C 49.734375 33.691406 49.859375 33.273438 49.945312 32.839844 C 50.03125 32.417969 50.074219 31.984375 50.074219 31.554688 C 50.074219 31.128906 50.03125 30.695312 49.945312 30.269531 C 49.859375 29.835938 49.734375 29.417969 49.570312 29.023438 C 49.40625 28.628906 49.203125 28.242188 48.957031 27.871094 C 48.726562 27.527344 48.453125 27.195312 48.136719 26.878906 C 47.820312 26.5625 47.488281 26.292969 47.144531 26.0625 C 46.777344 25.820312 46.390625 25.613281 45.996094 25.453125 Z M 45.996094 25.453125 " fill-opacity="1" fill-rule="evenodd"/></g><g clip-path="url(#4df541cb47)"><path fill="#ffffff" d="M 9.902344 29.707031 C 9.230469 29.429688 8.507812 29.289062 7.777344 29.289062 C 7.050781 29.289062 6.332031 29.429688 5.65625 29.707031 L 5.652344 29.707031 C 5.007812 29.972656 4.402344 30.375 3.863281 30.910156 L 3.859375 30.910156 C 3.605469 31.164062 3.378906 31.445312 3.183594 31.742188 C 2.976562 32.050781 2.804688 32.378906 2.667969 32.707031 L 2.667969 32.710938 C 2.527344 33.042969 2.421875 33.390625 2.351562 33.75 C 2.28125 34.105469 2.246094 34.464844 2.246094 34.824219 C 2.246094 35.183594 2.28125 35.542969 2.351562 35.898438 C 2.425781 36.265625 2.53125 36.617188 2.667969 36.941406 C 2.804688 37.273438 2.976562 37.597656 3.183594 37.90625 C 3.375 38.195312 3.601562 38.472656 3.867188 38.738281 L 5.367188 40.234375 C 5.6875 40.558594 6.046875 40.835938 6.417969 41.066406 C 6.851562 41.339844 7.308594 41.558594 7.769531 41.730469 C 8.273438 41.921875 8.792969 42.0625 9.292969 42.152344 C 12.421875 42.738281 16.105469 42.519531 19.953125 39.167969 L 18.554688 37.769531 L 11.691406 30.914062 C 11.152344 30.378906 10.542969 29.976562 9.902344 29.707031 Z M 9.902344 29.707031 " fill-opacity="1" fill-rule="evenodd"/></g><g clip-path="url(#58d4fa1735)"><path fill="#ffffff" d="M 34.996094 15.308594 C 34.304688 15.019531 33.558594 14.878906 32.8125 14.878906 C 32.0625 14.878906 31.316406 15.019531 30.625 15.308594 C 29.960938 15.582031 29.332031 15.992188 28.785156 16.542969 L 27.832031 17.5 L 27.65625 17.671875 L 27.828125 17.84375 L 27.835938 17.84375 L 35.714844 25.722656 L 36.839844 24.597656 L 36.84375 24.597656 C 37.105469 24.335938 37.339844 24.046875 37.546875 23.738281 C 37.761719 23.414062 37.9375 23.085938 38.074219 22.753906 C 38.214844 22.414062 38.324219 22.050781 38.398438 21.675781 C 38.46875 21.308594 38.507812 20.9375 38.507812 20.570312 C 38.507812 20.199219 38.472656 19.828125 38.398438 19.460938 C 38.324219 19.089844 38.214844 18.726562 38.074219 18.386719 C 37.933594 18.046875 37.757812 17.714844 37.546875 17.402344 L 37.542969 17.398438 C 37.34375 17.101562 37.109375 16.8125 36.839844 16.542969 C 36.289062 15.992188 35.660156 15.582031 34.996094 15.308594 Z M 34.996094 15.308594 " fill-opacity="1" fill-rule="evenodd"/></g></svg>